<svg xmlns="http://www.w3.org/2000/svg" width="43.342" height="97.603" viewBox="0 0 43.342 97.603"><g transform="translate(-1116.075 -352.243)"><path d="M1130.708,449.765h0l-11.249,12.547V410.743a12.514,12.514,0,0,1,23.847-5.3,1.692,1.692,0,0,0,3.064-1.437,15.9,15.9,0,0,0-30.294,6.736v55.99a1.692,1.692,0,0,0,2.952,1.13l14.2-15.838a1.692,1.692,0,0,0-2.519-2.259Z" transform="translate(0 -18.578)" fill="#000091"/><path d="M1134.917,373.344a10.55,10.55,0,1,0-7.461-3.09A10.524,10.524,0,0,0,1134.917,373.344Zm-5.068-15.618a7.167,7.167,0,1,1-2.1,5.068A7.134,7.134,0,0,1,1129.85,357.726Z" transform="translate(-3.616)" fill="#000091"/><path d="M1166.381,463.92a10.424,10.424,0,0,0-10.425,10.425v21.9a1.692,1.692,0,0,0,3.1.936l7.324-11.038,7.324,11.038a1.692,1.692,0,0,0,3.1-.936v-21.9a10.424,10.424,0,0,0-10.425-10.425Zm7.042,26.711-5.632-8.488a1.692,1.692,0,0,0-2.819,0l-5.632,8.488V474.345a7.042,7.042,0,1,1,14.083,0Z" transform="translate(-17.39 -48.695)" fill="#000091"/><path d="M1159.657,437.127a8.337,8.337,0,1,0,2.442-5.9A8.322,8.322,0,0,0,1159.657,437.127Zm4.835-3.5a4.954,4.954,0,1,1-1.451,3.5A4.933,4.933,0,0,1,1164.492,433.624Z" transform="translate(-19.003 -33.377)" fill="#000091"/></g></svg>