<svg xmlns="http://www.w3.org/2000/svg" width="69.254" height="65.758" viewBox="0 0 69.254 65.758"><g transform="translate(-1323.698 -401.826)"><path d="M1420.469,421.9a10.038,10.038,0,1,0-7.1-2.94A10.016,10.016,0,0,0,1420.469,421.9Zm-4.822-14.86a6.819,6.819,0,1,1-2,4.822A6.788,6.788,0,0,1,1415.647,407.042Z" transform="translate(-40.196)" fill="#000091"/><path d="M1345.818,421.9a10.039,10.039,0,1,0-7.1-2.94A10.015,10.015,0,0,0,1345.818,421.9ZM1341,407.042a6.817,6.817,0,1,1-2,4.822A6.787,6.787,0,0,1,1341,407.042Z" transform="translate(-5.599)" fill="#000091"/><path d="M1427.153,449.742a12.679,12.679,0,0,0-21.645,8.966v27.752a1.61,1.61,0,0,0,2.951.89l9.729-14.661,9.728,14.661a1.609,1.609,0,0,0,2.951-.89V458.707A12.647,12.647,0,0,0,1427.153,449.742Zm.494,31.38-8.119-12.235a1.609,1.609,0,0,0-2.682,0l-8.119,12.236V458.707a9.46,9.46,0,0,1,18.92,0Z" transform="translate(-37.915 -20.485)" fill="#000091"/><path d="M1352.639,456.153h0l-.215-.875-.016-.057a12.68,12.68,0,0,0-24.381,0l-.015.058-.215.875-3.994,16.311v0a3.655,3.655,0,0,0,3.55,4.527h.182v9.47a1.61,1.61,0,0,0,2.951.891l6.879-10.361h5.7l6.879,10.361a1.61,1.61,0,0,0,2.95-.891v-9.47h.183a3.657,3.657,0,0,0,3.657-3.652,3.687,3.687,0,0,0-.106-.873Zm.753,17.488a.417.417,0,0,1-.309.128h-1.793a1.61,1.61,0,0,0-1.61,1.61v5.745l-4.406-6.636a1.612,1.612,0,0,0-1.341-.72H1336.5a1.612,1.612,0,0,0-1.341.72l-4.406,6.636V475.38a1.609,1.609,0,0,0-1.609-1.61h-1.792a.418.418,0,0,1-.31-.128.437.437,0,0,1-.128-.3l.013-.106v0l3.995-16.311.2-.829a9.46,9.46,0,0,1,18.18,0l.2.831h0l3.994,16.311.013.108A.438.438,0,0,1,1353.392,473.642Z" transform="translate(0 -20.486)" fill="#000091"/></g></svg>