<?xml version="1.0" encoding="utf-8"?>
<!-- Generator: Adobe Illustrator 26.5.0, SVG Export Plug-In . SVG Version: 6.00 Build 0)  -->
<svg version="1.1" id="Calque_1" xmlns="http://www.w3.org/2000/svg" xmlns:xlink="http://www.w3.org/1999/xlink" x="0px" y="0px"
	 width="329px" height="112px" viewBox="0 0 329 112" style="enable-background:new 0 0 329 112;" xml:space="preserve">
<style type="text/css">
	.st0{fill:#FFFFFF;}
	.st1{fill:#139B62;}
	.st2{fill:#E20A17;}
	.st3{fill:#263473;}
	.st4{fill:#FFE818;}
	.st5{fill:#034EA2;}
	.st6{fill:#F9E925;}
	.st7{fill:#59595B;}
</style>
<g>
	<circle class="st0" cx="54" cy="56.4" r="40.5"/>
	<path class="st1" d="M54,97.1c-22.6,0-41.1-18.4-41.1-41.1S31.3,14.9,54,14.9S95,33.4,95,56S76.6,97.1,54,97.1 M54,17.2
		c-21.4,0-38.8,17.4-38.8,38.8c0,21.4,17.4,38.8,38.8,38.8c21.4,0,38.8-17.4,38.8-38.8C92.8,34.6,75.4,17.2,54,17.2"/>
	<path class="st1" d="M54,76.9C42.4,76.9,33,67.5,33,56S42.4,35.1,54,35.1c11.5,0,20.9,9.4,20.9,20.9S65.5,76.9,54,76.9 M54,35.9
		c-11.1,0-20.1,9-20.1,20.1c0,11.1,9,20.1,20.1,20.1C65,76.1,74,67.1,74,56C74,44.9,65,35.9,54,35.9"/>
	<rect x="67.4" y="55.4" transform="matrix(0.5 -0.866 0.866 0.5 -14.0697 93.8566)" class="st2" width="13.7" height="7.5"/>
	<rect x="60.9" y="51.7" transform="matrix(0.5 -0.866 0.866 0.5 -14.0694 86.4073)" class="st0" width="13.7" height="7.5"/>
	<rect x="54.5" y="47.9" transform="matrix(0.5 -0.866 0.866 0.5 -14.0698 78.9555)" class="st3" width="13.7" height="7.5"/>
	<path class="st3" d="M61.8,44.9l18,10.4l-6.1,10.6l-18-10.4L61.8,44.9z M61.6,43.8l-6.9,11.9L74,66.9L80.9,55L61.6,43.8z"/>
	<rect x="41.7" y="54.6" transform="matrix(0.5001 -0.866 0.866 0.5001 -20.0001 75.436)" class="st3" width="27.3" height="0.8"/>
	<rect x="29" y="48.5" transform="matrix(0.866 -0.5 0.5 0.866 -22.2917 27.4776)" class="st3" width="22.4" height="13.7"/>
	<polygon class="st4" points="42.2,60 42.4,59.5 43,59.5 42.6,59.2 42.8,58.7 42.3,58.9 41.9,58.6 42,59.1 41.5,59.4 42.1,59.5 	"/>
	<polygon class="st4" points="37.8,52.2 38.1,51.7 38.6,51.8 38.2,51.4 38.5,50.9 38,51.2 37.6,50.8 37.7,51.4 37.2,51.6 37.7,51.7 
			"/>
	<polygon class="st4" points="36,58.4 36.2,57.9 36.8,57.9 36.4,57.6 36.6,57.1 36.1,57.4 35.7,57 35.8,57.5 35.3,57.8 35.9,57.9 	
		"/>
	<polygon class="st4" points="44,53.7 44.3,53.2 44.8,53.3 44.4,52.9 44.7,52.4 44.2,52.7 43.8,52.3 43.9,52.9 43.4,53.2 43.9,53.2 
			"/>
	<polygon class="st4" points="40.2,51.6 40.4,51.1 41,51.1 40.6,50.7 40.8,50.2 40.3,50.5 39.9,50.2 40,50.7 39.5,51 40.1,51 	"/>
	<polygon class="st4" points="42.4,52.2 42.7,51.7 43.3,51.7 42.8,51.3 43.1,50.8 42.6,51.1 42.2,50.8 42.3,51.3 41.8,51.6 
		42.3,51.6 	"/>
	<polygon class="st4" points="44.5,56 44.7,55.5 45.3,55.5 44.9,55.1 45.1,54.6 44.6,54.9 44.2,54.6 44.3,55.1 43.8,55.4 44.4,55.4 
			"/>
	<polygon class="st4" points="43.9,58.3 44.1,57.7 44.7,57.8 44.2,57.4 44.5,56.9 44,57.2 43.6,56.8 43.7,57.4 43.2,57.7 43.7,57.7 
			"/>
	<polygon class="st4" points="39.9,60.5 40.2,60 40.8,60 40.3,59.7 40.6,59.2 40.1,59.5 39.7,59.1 39.8,59.6 39.3,59.9 39.8,60 	"/>
	<polygon class="st4" points="37.7,59.9 38,59.4 38.5,59.4 38.1,59 38.4,58.5 37.9,58.8 37.5,58.5 37.6,59 37.1,59.3 37.6,59.3 	"/>
	<polygon class="st4" points="35.4,56.3 35.6,55.7 36.2,55.8 35.8,55.4 36,54.9 35.5,55.2 35.1,54.8 35.2,55.4 34.7,55.7 35.3,55.7 
			"/>
	<polygon class="st4" points="35.9,54 36.2,53.5 36.7,53.6 36.3,53.2 36.6,52.7 36.1,53 35.7,52.6 35.8,53.2 35.3,53.5 35.8,53.5 	
		"/>
	<rect x="52.2" y="41.4" transform="matrix(0.866 -0.5 0.5 0.866 -20.4731 33.6721)" class="st3" width="0.8" height="27.3"/>
	<polygon class="st1" points="23,41.1 26,36 27.4,36.8 25.5,40.2 27.6,41.4 29.2,38.5 30.7,39.4 29.1,42.2 32.8,44.3 31.8,46.1 	"/>
	<path class="st1" d="M29.4,31.8l2.4-2c1.7-1.4,3.5-1.4,4.7,0c0.8,0.9,0.9,2,0.4,3.1l5.3,1.4l-1.9,1.5l-4.7-1.4l-0.8,0.7l2.6,3.2
		l-1.6,1.3L29.4,31.8z M32.1,31.8l1.7,2l0.9-0.7c0.7-0.6,0.7-1.3,0.2-1.9c-0.5-0.6-1.2-0.7-1.9-0.1L32.1,31.8z"/>
	<path class="st1" d="M44,23.2l2.6-0.7l6.3,8.9l-2.1,0.6l-1.6-2.3l-3.9,1L45,33.4L42.9,34L44,23.2z M48.1,28.1l-2.3-3.3l-0.4,4
		L48.1,28.1z"/>
	<polygon class="st1" points="56.4,21.5 59,22.1 61.9,30.2 63.4,23 65.4,23.4 63.4,33.3 60.8,32.8 57.9,24.7 56.4,31.9 54.3,31.5 	
		"/>
	<path class="st1" d="M73.4,36.7l0.5,2c-1.5,0.4-3.2,0.1-4.6-1c-2.5-2-2.7-5.3-0.9-7.5c1.8-2.3,5-2.9,7.6-0.9
		c1.4,1.1,2.1,2.7,2.1,4.3l-2.1,0c0.1-1-0.3-2-1.2-2.7c-1.5-1.2-3.5-0.9-4.7,0.7c-1.2,1.5-1.1,3.5,0.4,4.7
		C71.3,36.9,72.4,37,73.4,36.7"/>
	<polygon class="st1" points="82.5,36.8 85.3,41.9 83.8,42.8 82,39.4 79.9,40.6 81.4,43.4 80,44.3 78.4,41.4 76.1,42.7 77.9,46 
		76.5,46.9 73.6,41.7 	"/>
	<path class="st1" d="M30.5,63.7l1.4,2.8c1,2,0.6,3.7-1.1,4.6c-1.1,0.5-2.2,0.4-3.1-0.3l-2.6,4.8L24,73.4l2.5-4.3L26,68.2L22.3,70
		l-0.9-1.8L30.5,63.7z M29.9,66.3l-2.3,1.2l0.5,1c0.4,0.8,1.1,1,1.8,0.6c0.7-0.3,0.9-1,0.5-1.8L29.9,66.3z"/>
	<polygon class="st1" points="35,71.7 39.3,75.8 38.1,77 35.3,74.4 33.6,76.1 36,78.4 34.8,79.6 32.4,77.3 30.6,79.2 33.4,81.9 
		32.2,83.1 28,79 	"/>
	<polygon class="st1" points="41,76.9 42.9,77.8 39.3,85.3 42.7,86.9 41.9,88.6 36.6,86 	"/>
	<path class="st1" d="M50.6,80.3l2.7,0.2l3,10.4l-2.2-0.2L53.4,88l-4-0.3l-1.2,2.5L46,90.1L50.6,80.3z M52.9,86.2l-1.1-3.9L50.1,86
		L52.9,86.2z"/>
	<polygon class="st1" points="58,80.6 60.5,79.7 67.3,85 64.7,78.1 66.7,77.4 70.2,86.9 67.7,87.8 60.9,82.5 63.4,89.4 61.5,90.1 	
		"/>
	<path class="st1" d="M78.6,76.1l2-0.3c0.2,1.5-0.3,3.2-1.6,4.5c-2.3,2.3-5.6,2.1-7.6,0c-2-2.1-2.2-5.3,0-7.6c1.3-1.3,3-1.8,4.5-1.6
		l-0.3,2c-1-0.2-2,0.1-2.9,0.9c-1.4,1.4-1.3,3.4,0.1,4.7c1.4,1.4,3.4,1.5,4.7,0.1C78.5,78.1,78.8,77,78.6,76.1"/>
	<polygon class="st1" points="75.1,68.6 77.6,63.2 79.1,63.9 77.5,67.4 79.7,68.4 81.1,65.4 82.6,66.1 81.3,69.1 83.7,70.1 
		85.2,66.6 86.8,67.3 84.4,72.7 	"/>
	<rect x="131.1" y="31.7" class="st0" width="62.8" height="42.7"/>
	<path class="st0" d="M162.6,53.4"/>
	<rect x="132.4" y="32.9" class="st5" width="60.4" height="40.3"/>
	<path class="st5" d="M162.6,53"/>
	<polyline class="st6" points="161.3,41.6 162.5,40.7 163.8,41.6 163.3,40.1 164.6,39.2 163,39.2 162.5,37.7 162.1,39.2 160.5,39.2 
		161.8,40.1 161.3,41.6 	"/>
	<polyline class="st6" points="154.7,43.4 156,42.5 157.2,43.4 156.7,41.9 158,41 156.4,41 156,39.5 155.5,41 153.9,41 155.2,41.9 
		154.7,43.4 	"/>
	<polyline class="st6" points="151.1,44.3 150.6,45.8 149,45.8 150.3,46.8 149.8,48.3 151.1,47.3 152.4,48.3 151.9,46.8 153.2,45.8 
		151.6,45.8 151.1,44.3 	"/>
	<polyline class="st6" points="149.4,53.9 150.6,54.8 150.1,53.3 151.4,52.4 149.8,52.4 149.4,50.9 148.9,52.4 147.3,52.4 
		148.6,53.3 148.1,54.8 149.4,53.9 	"/>
	<polyline class="st6" points="151.6,59 151.1,57.5 150.6,59 149,59 150.3,60 149.8,61.5 151.1,60.5 152.4,61.5 151.9,60 153.2,59 
		151.6,59 	"/>
	<polyline class="st6" points="156.4,63.9 156,62.3 155.5,63.9 153.9,63.9 155.2,64.8 154.7,66.3 156,65.4 157.2,66.3 156.8,64.8 
		158,63.9 156.4,63.9 	"/>
	<polyline class="st6" points="163,65.6 162.5,64.1 162.1,65.6 160.5,65.6 161.8,66.5 161.3,68 162.5,67.1 163.8,68 163.3,66.5 
		164.6,65.6 163,65.6 	"/>
	<polyline class="st6" points="169.6,63.9 169.1,62.3 168.6,63.9 167.1,63.9 168.3,64.8 167.9,66.3 169.1,65.4 170.4,66.3 
		169.9,64.8 171.2,63.9 169.6,63.9 	"/>
	<polyline class="st6" points="174.5,59 174,57.5 173.5,59 171.9,59 173.2,60 172.7,61.5 174,60.5 175.2,61.5 174.8,60 176.1,59 
		174.5,59 	"/>
	<polyline class="st6" points="177.8,52.4 176.2,52.4 175.7,50.9 175.2,52.4 173.6,52.4 174.9,53.3 174.5,54.8 175.7,53.9 177,54.8 
		176.5,53.3 177.8,52.4 	"/>
	<polyline class="st6" points="172.7,48.2 174,47.3 175.2,48.2 174.8,46.7 176.1,45.8 174.5,45.8 174,44.3 173.5,45.8 171.9,45.8 
		173.2,46.7 172.7,48.2 	"/>
	<polyline class="st6" points="169.2,39.5 168.7,41 167.1,41 168.4,41.9 167.9,43.4 169.2,42.5 170.4,43.4 169.9,41.9 171.2,41 
		169.6,41 169.2,39.5 	"/>
	<g>
		<path class="st5" d="M200.2,41.9v-9h6.2v1.5h-4.4v2.1h3.8V38h-3.8v3.8H200.2z"/>
		<path class="st5" d="M207.9,34.5v-1.6h1.7v1.6H207.9z M207.9,41.9v-6.5h1.7v6.5H207.9z"/>
		<path class="st5" d="M217.3,41.9h-1.7v-3.3c0-0.7,0-1.2-0.1-1.4c-0.1-0.2-0.2-0.4-0.4-0.5c-0.2-0.1-0.4-0.2-0.6-0.2
			c-0.3,0-0.6,0.1-0.8,0.2c-0.2,0.2-0.4,0.4-0.5,0.7c-0.1,0.3-0.1,0.8-0.1,1.5v3h-1.7v-6.5h1.6v1c0.6-0.7,1.3-1.1,2.1-1.1
			c0.4,0,0.7,0.1,1,0.2c0.3,0.1,0.6,0.3,0.7,0.5c0.2,0.2,0.3,0.5,0.3,0.7s0.1,0.7,0.1,1.2V41.9z"/>
		<path class="st5" d="M220.4,37.3l-1.6-0.3c0.2-0.6,0.5-1.1,0.9-1.4c0.4-0.3,1.1-0.5,1.9-0.5c0.8,0,1.3,0.1,1.7,0.3
			c0.4,0.2,0.6,0.4,0.8,0.7c0.2,0.3,0.2,0.8,0.2,1.5l0,2c0,0.6,0,1,0.1,1.3c0.1,0.3,0.2,0.6,0.3,0.9H223c0-0.1-0.1-0.3-0.2-0.5
			c0-0.1,0-0.2-0.1-0.2c-0.3,0.3-0.6,0.5-0.9,0.6c-0.3,0.1-0.7,0.2-1.1,0.2c-0.7,0-1.2-0.2-1.6-0.5c-0.4-0.4-0.6-0.8-0.6-1.4
			c0-0.4,0.1-0.7,0.3-1c0.2-0.3,0.4-0.5,0.7-0.7c0.3-0.2,0.8-0.3,1.4-0.4c0.8-0.2,1.4-0.3,1.7-0.4v-0.2c0-0.3-0.1-0.6-0.2-0.7
			c-0.2-0.1-0.5-0.2-0.9-0.2c-0.3,0-0.5,0.1-0.7,0.2C220.6,36.8,220.5,37,220.4,37.3z M222.7,38.7c-0.2,0.1-0.6,0.2-1,0.3
			c-0.5,0.1-0.8,0.2-0.9,0.3c-0.2,0.2-0.3,0.4-0.3,0.6c0,0.2,0.1,0.5,0.3,0.6c0.2,0.2,0.4,0.3,0.7,0.3c0.3,0,0.6-0.1,0.9-0.3
			c0.2-0.2,0.3-0.3,0.4-0.6c0-0.1,0.1-0.4,0.1-0.8V38.7z"/>
		<path class="st5" d="M232,41.9h-1.7v-3.3c0-0.7,0-1.2-0.1-1.4c-0.1-0.2-0.2-0.4-0.4-0.5c-0.2-0.1-0.4-0.2-0.6-0.2
			c-0.3,0-0.6,0.1-0.8,0.2c-0.2,0.2-0.4,0.4-0.5,0.7c-0.1,0.3-0.1,0.8-0.1,1.5v3H226v-6.5h1.6v1c0.6-0.7,1.3-1.1,2.1-1.1
			c0.4,0,0.7,0.1,1,0.2c0.3,0.1,0.6,0.3,0.7,0.5c0.2,0.2,0.3,0.5,0.3,0.7c0.1,0.3,0.1,0.7,0.1,1.2V41.9z"/>
		<path class="st5" d="M239.4,37.3l-1.7,0.3c-0.1-0.3-0.2-0.6-0.4-0.8c-0.2-0.2-0.5-0.3-0.8-0.3c-0.4,0-0.8,0.1-1,0.4
			c-0.3,0.3-0.4,0.8-0.4,1.5c0,0.8,0.1,1.3,0.4,1.6c0.3,0.3,0.6,0.5,1,0.5c0.3,0,0.6-0.1,0.8-0.3c0.2-0.2,0.4-0.5,0.4-1l1.7,0.3
			c-0.2,0.8-0.5,1.4-1,1.8c-0.5,0.4-1.2,0.6-2,0.6c-1,0-1.7-0.3-2.3-0.9s-0.8-1.4-0.8-2.5c0-1.1,0.3-1.9,0.9-2.5
			c0.6-0.6,1.3-0.9,2.3-0.9c0.8,0,1.4,0.2,1.9,0.5C238.9,36.1,239.2,36.6,239.4,37.3z"/>
		<path class="st5" d="M244.5,39.8l1.7,0.3c-0.2,0.6-0.6,1.1-1,1.4c-0.5,0.3-1.1,0.5-1.8,0.5c-1.1,0-2-0.4-2.5-1.1
			c-0.4-0.6-0.6-1.3-0.6-2.2c0-1.1,0.3-1.9,0.8-2.5c0.6-0.6,1.3-0.9,2.1-0.9c1,0,1.7,0.3,2.3,1c0.6,0.6,0.8,1.6,0.8,2.9H242
			c0,0.5,0.2,0.9,0.4,1.2c0.3,0.3,0.6,0.4,1,0.4c0.3,0,0.5-0.1,0.7-0.2C244.3,40.4,244.4,40.1,244.5,39.8z M244.6,38.1
			c0-0.5-0.1-0.9-0.4-1.1c-0.2-0.3-0.5-0.4-0.9-0.4c-0.4,0-0.7,0.1-0.9,0.4c-0.2,0.3-0.4,0.6-0.4,1.1H244.6z M242.4,34.6l0.8-1.8
			h1.9l-1.7,1.8H242.4z"/>
		<path class="st5" d="M251.1,35.4h1.6v1c0.2-0.3,0.5-0.6,0.8-0.8c0.4-0.2,0.8-0.3,1.2-0.3c0.8,0,1.4,0.3,1.9,0.9
			c0.5,0.6,0.8,1.4,0.8,2.5c0,1.1-0.3,1.9-0.8,2.5c-0.5,0.6-1.2,0.9-1.9,0.9c-0.4,0-0.7-0.1-1-0.2c-0.3-0.1-0.6-0.4-0.9-0.7v3.3
			h-1.7V35.4z M252.9,38.5c0,0.7,0.1,1.3,0.4,1.6c0.3,0.3,0.6,0.5,1.1,0.5c0.4,0,0.7-0.2,1-0.5c0.3-0.3,0.4-0.8,0.4-1.6
			c0-0.7-0.1-1.2-0.4-1.5c-0.3-0.3-0.6-0.5-1-0.5c-0.4,0-0.8,0.2-1,0.5C253,37.4,252.9,37.9,252.9,38.5z"/>
		<path class="st5" d="M260.2,37.3l-1.6-0.3c0.2-0.6,0.5-1.1,0.9-1.4c0.4-0.3,1.1-0.5,1.9-0.5c0.8,0,1.3,0.1,1.7,0.3
			c0.4,0.2,0.6,0.4,0.8,0.7c0.2,0.3,0.2,0.8,0.2,1.5l0,2c0,0.6,0,1,0.1,1.3c0.1,0.3,0.2,0.6,0.3,0.9h-1.7c0-0.1-0.1-0.3-0.2-0.5
			c0-0.1,0-0.2-0.1-0.2c-0.3,0.3-0.6,0.5-0.9,0.6c-0.3,0.1-0.7,0.2-1.1,0.2c-0.7,0-1.2-0.2-1.6-0.5c-0.4-0.4-0.6-0.8-0.6-1.4
			c0-0.4,0.1-0.7,0.3-1c0.2-0.3,0.4-0.5,0.7-0.7c0.3-0.2,0.8-0.3,1.4-0.4c0.8-0.2,1.4-0.3,1.7-0.4v-0.2c0-0.3-0.1-0.6-0.2-0.7
			c-0.2-0.1-0.5-0.2-0.9-0.2c-0.3,0-0.5,0.1-0.7,0.2C260.4,36.8,260.3,37,260.2,37.3z M262.5,38.7c-0.2,0.1-0.6,0.2-1,0.3
			c-0.5,0.1-0.8,0.2-0.9,0.3c-0.2,0.2-0.3,0.4-0.3,0.6c0,0.2,0.1,0.5,0.3,0.6c0.2,0.2,0.4,0.3,0.7,0.3c0.3,0,0.6-0.1,0.9-0.3
			c0.2-0.2,0.3-0.3,0.4-0.6c0-0.1,0.1-0.4,0.1-0.8V38.7z"/>
		<path class="st5" d="M267.5,41.9h-1.7v-6.5h1.6v0.9c0.3-0.4,0.5-0.7,0.7-0.9c0.2-0.1,0.5-0.2,0.7-0.2c0.4,0,0.8,0.1,1.1,0.3
			l-0.5,1.5c-0.3-0.2-0.6-0.3-0.8-0.3c-0.2,0-0.4,0.1-0.6,0.2c-0.2,0.1-0.3,0.4-0.4,0.7c-0.1,0.3-0.1,1.1-0.1,2.2V41.9z"/>
		<path class="st5" d="M200.2,56.9v-9h1.7v9H200.2z"/>
		<path class="st5" d="M203.7,48h1.7v1.2c0,0.5,0,0.9-0.1,1.2c-0.1,0.3-0.2,0.5-0.5,0.8c-0.2,0.2-0.5,0.4-0.9,0.5l-0.3-0.7
			c0.3-0.1,0.6-0.3,0.7-0.5c0.1-0.2,0.2-0.5,0.2-0.8h-0.8V48z"/>
		<path class="st5" d="M207.2,48h1.8v4.9c0,0.8,0,1.3,0.1,1.5c0.1,0.4,0.3,0.7,0.6,0.9c0.3,0.2,0.7,0.3,1.2,0.3
			c0.5,0,0.9-0.1,1.2-0.3c0.3-0.2,0.4-0.5,0.5-0.8c0.1-0.3,0.1-0.8,0.1-1.5v-5h1.8v4.7c0,1.1,0,1.8-0.1,2.3
			c-0.1,0.4-0.3,0.8-0.5,1.1c-0.3,0.3-0.6,0.6-1.1,0.7c-0.4,0.2-1,0.3-1.7,0.3c-0.9,0-1.5-0.1-2-0.3c-0.4-0.2-0.8-0.5-1.1-0.8
			c-0.3-0.3-0.4-0.6-0.5-1c-0.1-0.5-0.2-1.3-0.2-2.3V48z"/>
		<path class="st5" d="M222.2,56.9h-1.7v-3.3c0-0.7,0-1.2-0.1-1.4c-0.1-0.2-0.2-0.4-0.4-0.5c-0.2-0.1-0.4-0.2-0.6-0.2
			c-0.3,0-0.6,0.1-0.8,0.2c-0.2,0.2-0.4,0.4-0.5,0.7c-0.1,0.3-0.1,0.8-0.1,1.5v3h-1.7v-6.5h1.6v1c0.6-0.7,1.3-1.1,2.1-1.1
			c0.4,0,0.7,0.1,1,0.2c0.3,0.1,0.6,0.3,0.7,0.5c0.2,0.2,0.3,0.5,0.3,0.7s0.1,0.7,0.1,1.2V56.9z"/>
		<path class="st5" d="M224,49.5V48h1.7v1.6H224z M224,56.9v-6.5h1.7v6.5H224z"/>
		<path class="st5" d="M227,53.6c0-0.6,0.1-1.1,0.4-1.7c0.3-0.5,0.7-0.9,1.2-1.2c0.5-0.3,1.1-0.4,1.7-0.4c1,0,1.8,0.3,2.4,1
			c0.6,0.6,0.9,1.4,0.9,2.4c0,1-0.3,1.8-1,2.5c-0.6,0.6-1.4,1-2.4,1c-0.6,0-1.2-0.1-1.7-0.4c-0.5-0.3-1-0.7-1.2-1.2
			C227.2,55,227,54.3,227,53.6z M228.8,53.7c0,0.6,0.2,1.1,0.5,1.5c0.3,0.3,0.7,0.5,1.1,0.5c0.4,0,0.8-0.2,1.1-0.5
			c0.3-0.3,0.5-0.8,0.5-1.5c0-0.6-0.2-1.1-0.5-1.5c-0.3-0.3-0.7-0.5-1.1-0.5c-0.5,0-0.8,0.2-1.1,0.5C229,52.5,228.8,53,228.8,53.7z"
			/>
		<path class="st5" d="M241,56.9h-1.7v-3.3c0-0.7,0-1.2-0.1-1.4c-0.1-0.2-0.2-0.4-0.4-0.5c-0.2-0.1-0.4-0.2-0.6-0.2
			c-0.3,0-0.6,0.1-0.8,0.2c-0.2,0.2-0.4,0.4-0.5,0.7c-0.1,0.3-0.1,0.8-0.1,1.5v3h-1.7v-6.5h1.6v1c0.6-0.7,1.3-1.1,2.1-1.1
			c0.4,0,0.7,0.1,1,0.2c0.3,0.1,0.6,0.3,0.7,0.5c0.2,0.2,0.3,0.5,0.3,0.7s0.1,0.7,0.1,1.2V56.9z"/>
		<path class="st5" d="M250.1,54.9l1.7,0.3c-0.2,0.6-0.6,1.1-1,1.4c-0.5,0.3-1.1,0.5-1.8,0.5c-1.1,0-2-0.4-2.5-1.1
			c-0.4-0.6-0.6-1.3-0.6-2.2c0-1.1,0.3-1.9,0.8-2.5c0.6-0.6,1.3-0.9,2.1-0.9c1,0,1.7,0.3,2.3,1c0.6,0.6,0.8,1.6,0.8,2.9h-4.3
			c0,0.5,0.2,0.9,0.4,1.2c0.3,0.3,0.6,0.4,1,0.4c0.3,0,0.5-0.1,0.7-0.2C249.8,55.4,250,55.2,250.1,54.9z M250.2,53.1
			c0-0.5-0.1-0.9-0.4-1.1s-0.5-0.4-0.9-0.4c-0.4,0-0.7,0.1-0.9,0.4c-0.2,0.3-0.4,0.6-0.4,1.1H250.2z"/>
		<path class="st5" d="M257.6,56.9v-1c-0.2,0.3-0.5,0.6-0.9,0.8c-0.4,0.2-0.8,0.3-1.2,0.3c-0.4,0-0.8-0.1-1.2-0.3
			c-0.3-0.2-0.6-0.5-0.8-0.8c-0.2-0.3-0.2-0.8-0.2-1.4v-4.1h1.7v3c0,0.9,0,1.5,0.1,1.7c0.1,0.2,0.2,0.4,0.3,0.5
			c0.2,0.1,0.4,0.2,0.6,0.2c0.3,0,0.6-0.1,0.8-0.2c0.2-0.2,0.4-0.4,0.5-0.6c0.1-0.2,0.1-0.8,0.1-1.8v-2.7h1.7v6.5H257.6z"/>
		<path class="st5" d="M262.6,56.9h-1.7v-6.5h1.6v0.9c0.3-0.4,0.5-0.7,0.7-0.9c0.2-0.1,0.5-0.2,0.7-0.2c0.4,0,0.8,0.1,1.1,0.3
			l-0.5,1.5c-0.3-0.2-0.6-0.3-0.8-0.3c-0.2,0-0.4,0.1-0.6,0.2c-0.2,0.1-0.3,0.4-0.4,0.7c-0.1,0.3-0.1,1.1-0.1,2.2V56.9z"/>
		<path class="st5" d="M265.4,53.6c0-0.6,0.1-1.1,0.4-1.7c0.3-0.5,0.7-0.9,1.2-1.2c0.5-0.3,1.1-0.4,1.7-0.4c1,0,1.8,0.3,2.4,1
			c0.6,0.6,0.9,1.4,0.9,2.4c0,1-0.3,1.8-1,2.5c-0.6,0.6-1.4,1-2.4,1c-0.6,0-1.2-0.1-1.7-0.4c-0.5-0.3-1-0.7-1.2-1.2
			C265.6,55,265.4,54.3,265.4,53.6z M267.2,53.7c0,0.6,0.2,1.1,0.5,1.5c0.3,0.3,0.7,0.5,1.1,0.5c0.4,0,0.8-0.2,1.1-0.5
			c0.3-0.3,0.5-0.8,0.5-1.5c0-0.6-0.2-1.1-0.5-1.5c-0.3-0.3-0.7-0.5-1.1-0.5c-0.5,0-0.8,0.2-1.1,0.5C267.4,52.5,267.2,53,267.2,53.7
			z"/>
		<path class="st5" d="M273.5,50.4h1.6v1c0.2-0.3,0.5-0.6,0.8-0.8c0.4-0.2,0.8-0.3,1.2-0.3c0.8,0,1.4,0.3,1.9,0.9
			c0.5,0.6,0.8,1.4,0.8,2.5c0,1.1-0.3,1.9-0.8,2.5c-0.5,0.6-1.2,0.9-1.9,0.9c-0.4,0-0.7-0.1-1-0.2c-0.3-0.1-0.6-0.4-0.9-0.7v3.3
			h-1.7V50.4z M275.2,53.6c0,0.7,0.1,1.3,0.4,1.6c0.3,0.3,0.6,0.5,1.1,0.5c0.4,0,0.7-0.2,1-0.5c0.3-0.3,0.4-0.8,0.4-1.6
			c0-0.7-0.1-1.2-0.4-1.5c-0.3-0.3-0.6-0.5-1-0.5c-0.4,0-0.8,0.2-1,0.5C275.3,52.5,275.2,52.9,275.2,53.6z"/>
		<path class="st5" d="M285,54.9l1.7,0.3c-0.2,0.6-0.6,1.1-1,1.4c-0.5,0.3-1.1,0.5-1.8,0.5c-1.1,0-2-0.4-2.5-1.1
			c-0.4-0.6-0.6-1.3-0.6-2.2c0-1.1,0.3-1.9,0.8-2.5c0.6-0.6,1.3-0.9,2.1-0.9c1,0,1.7,0.3,2.3,1c0.6,0.6,0.8,1.6,0.8,2.9h-4.3
			c0,0.5,0.2,0.9,0.4,1.2c0.3,0.3,0.6,0.4,1,0.4c0.3,0,0.5-0.1,0.7-0.2S284.9,55.2,285,54.9z M285.1,53.1c0-0.5-0.1-0.9-0.4-1.1
			s-0.5-0.4-0.9-0.4c-0.4,0-0.7,0.1-0.9,0.4c-0.2,0.3-0.4,0.6-0.4,1.1H285.1z M282.9,49.6l0.8-1.8h1.9l-1.7,1.8H282.9z"/>
		<path class="st5" d="M292,54.9l1.7,0.3c-0.2,0.6-0.6,1.1-1,1.4c-0.5,0.3-1.1,0.5-1.8,0.5c-1.1,0-2-0.4-2.5-1.1
			c-0.4-0.6-0.6-1.3-0.6-2.2c0-1.1,0.3-1.9,0.8-2.5c0.6-0.6,1.3-0.9,2.1-0.9c1,0,1.7,0.3,2.3,1c0.6,0.6,0.8,1.6,0.8,2.9h-4.3
			c0,0.5,0.2,0.9,0.4,1.2c0.3,0.3,0.6,0.4,1,0.4c0.3,0,0.5-0.1,0.7-0.2S291.9,55.2,292,54.9z M292.1,53.1c0-0.5-0.1-0.9-0.4-1.1
			s-0.5-0.4-0.9-0.4c-0.4,0-0.7,0.1-0.9,0.4c-0.2,0.3-0.4,0.6-0.4,1.1H292.1z"/>
		<path class="st5" d="M301.1,56.9h-1.7v-3.3c0-0.7,0-1.2-0.1-1.4c-0.1-0.2-0.2-0.4-0.4-0.5c-0.2-0.1-0.4-0.2-0.6-0.2
			c-0.3,0-0.6,0.1-0.8,0.2c-0.2,0.2-0.4,0.4-0.5,0.7s-0.1,0.8-0.1,1.5v3h-1.7v-6.5h1.6v1c0.6-0.7,1.3-1.1,2.1-1.1
			c0.4,0,0.7,0.1,1,0.2c0.3,0.1,0.6,0.3,0.7,0.5c0.2,0.2,0.3,0.5,0.3,0.7s0.1,0.7,0.1,1.2V56.9z"/>
		<path class="st5" d="M308.8,56.9h-1.7v-3.3c0-0.7,0-1.2-0.1-1.4c-0.1-0.2-0.2-0.4-0.4-0.5c-0.2-0.1-0.4-0.2-0.6-0.2
			c-0.3,0-0.6,0.1-0.8,0.2c-0.2,0.2-0.4,0.4-0.5,0.7c-0.1,0.3-0.1,0.8-0.1,1.5v3h-1.7v-6.5h1.6v1c0.6-0.7,1.3-1.1,2.1-1.1
			c0.4,0,0.7,0.1,1,0.2c0.3,0.1,0.6,0.3,0.7,0.5c0.2,0.2,0.3,0.5,0.3,0.7c0.1,0.3,0.1,0.7,0.1,1.2V56.9z"/>
		<path class="st5" d="M314.3,54.9l1.7,0.3c-0.2,0.6-0.6,1.1-1,1.4c-0.5,0.3-1.1,0.5-1.8,0.5c-1.1,0-2-0.4-2.5-1.1
			c-0.4-0.6-0.6-1.3-0.6-2.2c0-1.1,0.3-1.9,0.8-2.5c0.6-0.6,1.3-0.9,2.1-0.9c1,0,1.7,0.3,2.3,1c0.6,0.6,0.8,1.6,0.8,2.9h-4.3
			c0,0.5,0.2,0.9,0.4,1.2c0.3,0.3,0.6,0.4,1,0.4c0.3,0,0.5-0.1,0.7-0.2C314.1,55.4,314.2,55.2,314.3,54.9z M314.4,53.1
			c0-0.5-0.1-0.9-0.4-1.1c-0.2-0.3-0.5-0.4-0.9-0.4c-0.4,0-0.7,0.1-0.9,0.4c-0.2,0.3-0.4,0.6-0.4,1.1H314.4z"/>
	</g>
	<g>
		<g>
			<path class="st7" d="M200.2,73.1v-7.8h1.1l4.1,6.1v-6.1h1v7.8h-1.1l-4.1-6.1v6.1H200.2z"/>
			<path class="st7" d="M211.8,71.3l1,0.1c-0.2,0.6-0.4,1-0.9,1.3c-0.4,0.3-1,0.5-1.6,0.5c-0.8,0-1.5-0.3-2-0.8
				c-0.5-0.5-0.7-1.2-0.7-2.1c0-0.9,0.2-1.7,0.7-2.2c0.5-0.5,1.1-0.8,1.9-0.8c0.8,0,1.4,0.3,1.8,0.8c0.5,0.5,0.7,1.2,0.7,2.2
				c0,0.1,0,0.1,0,0.3h-4.2c0,0.6,0.2,1.1,0.5,1.4s0.7,0.5,1.2,0.5c0.4,0,0.6-0.1,0.9-0.3C211.5,72,211.7,71.7,211.8,71.3z
				 M208.7,69.8h3.1c0-0.5-0.2-0.8-0.4-1.1c-0.3-0.4-0.7-0.6-1.2-0.6c-0.4,0-0.8,0.1-1.1,0.4C208.9,68.9,208.7,69.3,208.7,69.8z"/>
			<path class="st7" d="M213.4,73.1l2.1-2.9l-1.9-2.7h1.2l0.9,1.3c0.2,0.3,0.3,0.5,0.4,0.6c0.2-0.2,0.3-0.4,0.4-0.6l0.9-1.3h1.1
				l-1.9,2.7l2.1,3h-1.2l-1.2-1.8l-0.3-0.5l-1.5,2.2H213.4z"/>
			<path class="st7" d="M221.5,72.3l0.1,0.8c-0.3,0.1-0.5,0.1-0.7,0.1c-0.3,0-0.6-0.1-0.8-0.2c-0.2-0.1-0.3-0.3-0.4-0.4
				c-0.1-0.2-0.1-0.6-0.1-1.1v-3.2h-0.7v-0.7h0.7v-1.4l0.9-0.6v2h1v0.7h-1v3.3c0,0.3,0,0.4,0.1,0.5c0,0.1,0.1,0.1,0.2,0.2
				c0.1,0,0.2,0.1,0.3,0.1C221.2,72.3,221.4,72.3,221.5,72.3z"/>
			<path class="st7" d="M226.2,70.1v-0.9l3.3,0v2.9c-0.5,0.4-1,0.7-1.6,0.9c-0.5,0.2-1.1,0.3-1.7,0.3c-0.8,0-1.5-0.2-2.1-0.5
				c-0.6-0.3-1.1-0.8-1.4-1.4c-0.3-0.6-0.5-1.3-0.5-2.1c0-0.8,0.2-1.5,0.5-2.1c0.3-0.7,0.8-1.1,1.4-1.5c0.6-0.3,1.3-0.5,2.1-0.5
				c0.6,0,1.1,0.1,1.5,0.3c0.5,0.2,0.8,0.4,1.1,0.8c0.3,0.3,0.5,0.7,0.6,1.3l-0.9,0.3c-0.1-0.4-0.3-0.7-0.4-0.9
				c-0.2-0.2-0.4-0.4-0.7-0.5c-0.3-0.1-0.7-0.2-1.1-0.2c-0.5,0-0.9,0.1-1.2,0.2c-0.3,0.1-0.6,0.3-0.8,0.6c-0.2,0.2-0.4,0.5-0.5,0.8
				c-0.2,0.5-0.3,1-0.3,1.6c0,0.7,0.1,1.3,0.4,1.7c0.2,0.5,0.6,0.8,1,1c0.5,0.2,0.9,0.3,1.5,0.3c0.4,0,0.9-0.1,1.3-0.3
				c0.4-0.2,0.7-0.4,1-0.5v-1.4H226.2z"/>
			<path class="st7" d="M234.8,71.3l1,0.1c-0.2,0.6-0.4,1-0.9,1.3c-0.4,0.3-1,0.5-1.6,0.5c-0.8,0-1.5-0.3-2-0.8
				c-0.5-0.5-0.7-1.2-0.7-2.1c0-0.9,0.2-1.7,0.7-2.2c0.5-0.5,1.1-0.8,1.9-0.8c0.8,0,1.4,0.3,1.8,0.8c0.5,0.5,0.7,1.2,0.7,2.2
				c0,0.1,0,0.1,0,0.3h-4.2c0,0.6,0.2,1.1,0.5,1.4s0.7,0.5,1.2,0.5c0.4,0,0.6-0.1,0.9-0.3C234.4,72,234.6,71.7,234.8,71.3z
				 M231.6,69.8h3.1c0-0.5-0.2-0.8-0.4-1.1c-0.3-0.4-0.7-0.6-1.2-0.6c-0.4,0-0.8,0.1-1.1,0.4C231.8,68.9,231.7,69.3,231.6,69.8z"/>
			<path class="st7" d="M236.9,73.1v-5.6h0.9v0.8c0.4-0.6,1-0.9,1.8-0.9c0.3,0,0.7,0.1,0.9,0.2c0.3,0.1,0.5,0.3,0.6,0.5
				c0.1,0.2,0.2,0.4,0.3,0.7c0,0.2,0.1,0.5,0.1,0.9v3.5h-1v-3.4c0-0.4,0-0.7-0.1-0.9c-0.1-0.2-0.2-0.3-0.4-0.5
				c-0.2-0.1-0.4-0.2-0.7-0.2c-0.4,0-0.8,0.1-1.1,0.4c-0.3,0.3-0.4,0.7-0.4,1.5v3.1H236.9z"/>
			<path class="st7" d="M246.8,71.3l1,0.1c-0.2,0.6-0.4,1-0.9,1.3c-0.4,0.3-1,0.5-1.6,0.5c-0.8,0-1.5-0.3-2-0.8
				c-0.5-0.5-0.7-1.2-0.7-2.1c0-0.9,0.2-1.7,0.7-2.2c0.5-0.5,1.1-0.8,1.9-0.8c0.8,0,1.4,0.3,1.8,0.8c0.5,0.5,0.7,1.2,0.7,2.2
				c0,0.1,0,0.1,0,0.3h-4.2c0,0.6,0.2,1.1,0.5,1.4c0.3,0.3,0.7,0.5,1.2,0.5c0.4,0,0.6-0.1,0.9-0.3C246.5,72,246.7,71.7,246.8,71.3z
				 M243.7,69.8h3.1c0-0.5-0.2-0.8-0.4-1.1c-0.3-0.4-0.7-0.6-1.2-0.6c-0.4,0-0.8,0.1-1.1,0.4C243.9,68.9,243.7,69.3,243.7,69.8z"/>
			<path class="st7" d="M249,73.1v-5.6h0.9v0.9c0.2-0.4,0.4-0.7,0.6-0.8c0.2-0.1,0.4-0.2,0.6-0.2c0.3,0,0.6,0.1,1,0.3l-0.3,0.9
				c-0.2-0.1-0.5-0.2-0.7-0.2c-0.2,0-0.4,0.1-0.6,0.2c-0.2,0.1-0.3,0.3-0.4,0.5c-0.1,0.3-0.2,0.7-0.2,1.1v2.9H249z"/>
			<path class="st7" d="M256.3,72.4c-0.4,0.3-0.7,0.5-1,0.6c-0.3,0.1-0.7,0.2-1.1,0.2c-0.6,0-1.1-0.2-1.4-0.5
				c-0.3-0.3-0.5-0.7-0.5-1.2c0-0.3,0.1-0.5,0.2-0.8c0.1-0.2,0.3-0.4,0.5-0.5c0.2-0.1,0.4-0.2,0.7-0.3c0.2,0,0.5-0.1,0.8-0.1
				c0.8-0.1,1.3-0.2,1.7-0.3c0-0.1,0-0.2,0-0.2c0-0.4-0.1-0.7-0.3-0.8c-0.2-0.2-0.6-0.3-1.1-0.3c-0.4,0-0.8,0.1-1,0.2
				c-0.2,0.2-0.4,0.4-0.5,0.8l-0.9-0.1c0.1-0.4,0.2-0.7,0.4-1c0.2-0.2,0.5-0.4,0.8-0.6c0.4-0.1,0.8-0.2,1.3-0.2
				c0.5,0,0.9,0.1,1.2,0.2c0.3,0.1,0.5,0.3,0.7,0.4c0.1,0.2,0.2,0.4,0.3,0.6c0,0.2,0,0.5,0,0.9v1.3c0,0.9,0,1.4,0.1,1.7
				c0,0.2,0.1,0.5,0.2,0.7h-1C256.4,72.9,256.4,72.7,256.3,72.4z M256.2,70.3c-0.3,0.1-0.9,0.3-1.6,0.4c-0.4,0.1-0.7,0.1-0.8,0.2
				c-0.2,0.1-0.3,0.2-0.4,0.3c-0.1,0.1-0.1,0.3-0.1,0.5c0,0.3,0.1,0.5,0.3,0.6c0.2,0.2,0.5,0.3,0.8,0.3c0.4,0,0.7-0.1,1-0.2
				c0.3-0.2,0.5-0.4,0.6-0.7c0.1-0.2,0.2-0.5,0.2-1V70.3z"/>
			<path class="st7" d="M260.8,72.3l0.1,0.8c-0.3,0.1-0.5,0.1-0.7,0.1c-0.3,0-0.6-0.1-0.8-0.2c-0.2-0.1-0.3-0.3-0.4-0.4
				c-0.1-0.2-0.1-0.6-0.1-1.1v-3.2h-0.7v-0.7h0.7v-1.4l0.9-0.6v2h1v0.7h-1v3.3c0,0.3,0,0.4,0.1,0.5c0,0.1,0.1,0.1,0.2,0.2
				c0.1,0,0.2,0.1,0.3,0.1C260.5,72.3,260.6,72.3,260.8,72.3z"/>
			<path class="st7" d="M261.7,66.5v-1.1h1v1.1H261.7z M261.7,73.1v-5.6h1v5.6H261.7z"/>
			<path class="st7" d="M263.8,70.3c0-1,0.3-1.8,0.9-2.3c0.5-0.4,1.1-0.6,1.8-0.6c0.8,0,1.4,0.3,1.9,0.8c0.5,0.5,0.7,1.2,0.7,2.1
				c0,0.7-0.1,1.3-0.3,1.7c-0.2,0.4-0.5,0.7-0.9,1c-0.4,0.2-0.9,0.3-1.4,0.3c-0.8,0-1.4-0.3-1.9-0.8C264,72,263.8,71.3,263.8,70.3z
				 M264.7,70.3c0,0.7,0.2,1.3,0.5,1.6c0.3,0.4,0.7,0.5,1.2,0.5c0.5,0,0.9-0.2,1.2-0.5c0.3-0.4,0.5-0.9,0.5-1.6
				c0-0.7-0.2-1.2-0.5-1.6c-0.3-0.4-0.7-0.5-1.2-0.5c-0.5,0-0.9,0.2-1.2,0.5C264.9,69.1,264.7,69.6,264.7,70.3z"/>
			<path class="st7" d="M270.2,73.1v-5.6h0.9v0.8c0.4-0.6,1-0.9,1.8-0.9c0.3,0,0.7,0.1,0.9,0.2c0.3,0.1,0.5,0.3,0.6,0.5
				c0.1,0.2,0.2,0.4,0.3,0.7c0,0.2,0.1,0.5,0.1,0.9v3.5h-1v-3.4c0-0.4,0-0.7-0.1-0.9c-0.1-0.2-0.2-0.3-0.4-0.5
				c-0.2-0.1-0.4-0.2-0.7-0.2c-0.4,0-0.8,0.1-1.1,0.4c-0.3,0.3-0.4,0.7-0.4,1.5v3.1H270.2z"/>
			<path class="st7" d="M276.3,73.1v-7.8h5.6v0.9h-4.6v2.4h4.3v0.9h-4.3v2.6h4.8v0.9H276.3z"/>
			<path class="st7" d="M288.7,65.4h1v4.5c0,0.8-0.1,1.4-0.3,1.9s-0.5,0.8-1,1.1c-0.5,0.3-1.1,0.4-1.8,0.4c-0.7,0-1.3-0.1-1.8-0.4
				s-0.8-0.6-1-1.1c-0.2-0.5-0.3-1.1-0.3-1.9v-4.5h1v4.5c0,0.7,0.1,1.2,0.2,1.5c0.1,0.3,0.3,0.6,0.6,0.7c0.3,0.2,0.7,0.3,1.1,0.3
				c0.8,0,1.3-0.2,1.6-0.5c0.3-0.3,0.5-1,0.5-2V65.4z"/>
		</g>
	</g>
</g>
</svg>
